<svg width="123" height="38" viewBox="0 0 123 38" fill="none" xmlns="http://www.w3.org/2000/svg">
<path d="M48.9588 8.1461V23.482H44.8957L44.446 22.3976C43.1982 23.414 41.6151 24.002 39.8422 24.002C35.176 24.002 31.8408 20.5815 31.8408 15.8153C31.8408 11.0649 35.176 7.68359 39.8422 7.68359C41.6385 7.68359 43.2424 8.2872 44.5032 9.33242L45.0413 8.1461H48.9588ZM43.9599 15.8258C43.9599 13.8347 42.5119 12.34 40.5441 12.34C38.5632 12.34 37.1283 13.8347 37.1283 15.8258C37.1283 17.8274 38.5736 19.3246 40.5441 19.3246C42.5145 19.3246 43.9599 17.83 43.9599 15.8258Z" fill="#04B84D"/>
<path d="M75.681 13.879V23.4976H70.4247V14.5323C70.4247 12.9305 69.8372 12.157 68.722 12.157C67.2767 12.157 66.5384 13.1578 66.5384 15.0888V23.4976H61.4199V14.5323C61.4199 12.9801 60.8376 12.157 59.738 12.157C58.3135 12.157 57.531 13.1813 57.531 15.0888V23.4976H52.2773V8.15909H55.9739L56.7225 9.80791C57.8248 8.51707 59.4261 7.70703 61.1834 7.70703C63.0446 7.70703 64.6095 8.54581 65.5584 9.96469C66.6554 8.57717 68.3451 7.70703 70.2427 7.70703C73.5103 7.70964 75.681 10.2678 75.681 13.879Z" fill="#04B84D"/>
<path d="M87.7908 7.68253C92.4882 7.68253 95.8078 11.0742 95.8078 15.8404C95.8078 20.6066 92.4882 24.0009 87.7908 24.0009C86.0101 24.0009 84.0085 22.9949 82.7685 21.9549L82.6931 23.4992H78.8042V2.62109H84.0007V8.7382C85.0925 8.06142 86.3793 7.68253 87.7908 7.68253ZM90.5047 15.8404C90.5047 13.8362 89.0568 12.3416 87.0889 12.3416C85.1211 12.3416 83.6731 13.8362 83.6731 15.8404C83.6731 17.8263 85.1211 19.321 87.0889 19.321C89.0438 19.3236 90.5047 17.8263 90.5047 15.8404Z" fill="#04B84D"/>
<path d="M103.468 8.15625H98.2122V23.4947H103.468V8.15625Z" fill="#04B84D"/>
<path d="M105.89 15.8233C105.89 11.0702 109.469 7.65234 114.445 7.65234C119.402 7.65234 123 11.0702 123 15.8233C123 20.5607 119.405 23.9942 114.445 23.9942C109.469 23.9942 105.89 20.5607 105.89 15.8233ZM114.445 19.249C116.361 19.249 117.736 17.851 117.736 15.8233C117.736 13.806 116.361 12.3976 114.445 12.3976C112.529 12.3976 111.154 13.7956 111.154 15.8233C111.154 17.851 112.529 19.249 114.445 19.249Z" fill="#04B84D"/>
<path d="M10.9336 18.0413C10.1616 18.1589 9.48831 18.3052 8.80983 18.3522C8.08976 18.4045 7.52306 18.0726 7.49186 17.3018C7.43727 15.849 7.47627 14.3935 7.47627 12.8544C8.82282 12.8544 11.3938 12.8544 12.6857 12.8544C12.6857 11.1037 12.7143 9.43919 12.7143 7.69108C11.3704 7.69108 8.77603 7.69108 7.41388 7.69108C7.41388 6.12849 7.41648 3.37697 7.41648 1.86925C5.39664 1.87709 4.65577 1.83267 1.99384 1.87186C1.95225 3.47626 2.03284 6.1912 1.94965 7.74073C1.23738 7.74073 0.639486 7.74073 0 7.74073C0 9.46532 0 11.1324 0 12.8962C0.603092 12.8962 1.16199 12.8962 1.78848 12.8962C1.78848 14.6992 1.73389 16.4108 1.80148 18.1171C1.89246 20.3852 2.66192 22.3136 4.95472 23.1916C7.24751 24.0695 9.5247 23.7168 11.8253 22.9695C11.5211 21.2971 11.2352 19.7032 10.9336 18.0413Z" fill="#1D3392"/>
<path fill-rule="evenodd" clip-rule="evenodd" d="M30.9809 7.7739C29.8813 9.38614 28.7895 11.0951 27.6899 12.7021C27.209 13.4076 26.7567 14.1418 26.229 14.8082C25.8157 15.3282 25.8183 15.6783 26.2602 16.2192C28.0279 18.3697 29.7332 20.5725 31.4592 22.757C31.5736 22.9033 31.6724 23.0627 31.8778 23.3606C31.0823 23.3606 30.4142 23.3606 29.7436 23.3606C28.397 23.3606 27.0478 23.3998 25.7039 23.3345C25.3321 23.3162 24.8668 23.0862 24.6329 22.7988C23.4137 21.3042 22.2543 19.7599 21.0741 18.2339C20.9285 18.0457 20.7648 17.868 20.6114 17.6851C20.5516 17.706 20.4918 17.7269 20.4294 17.7478C20.4294 19.5874 20.4294 21.4296 20.4294 23.3136C18.5604 23.3136 16.7563 23.3136 14.8872 23.3136C14.8872 15.5503 14.8872 9.69709 14.8872 1.87891C17.3828 1.87891 18.8411 1.87891 20.4398 1.87891C20.4398 6.22176 20.4398 8.67017 20.4398 13.0156C20.4996 13.0339 20.5594 13.0548 20.6192 13.0731C21.3159 12.0357 24.009 7.73993 24.009 7.73993L30.9809 7.7739Z" fill="#1D3392"/>
<path d="M102.171 2.80117L105 0C105 0 106.702 1.95977 104.924 3.32377C103.986 3.99271 102.26 3.30026 102.286 3.00237C102.312 2.70449 102.171 2.80117 102.171 2.80117Z" fill="#1D3392"/>
<path d="M102.362 2.63617C103.706 3.7859 105.131 3.15094 105.131 3.15094C105.131 3.15094 105.131 3.15094 102.736 5.65683C101.281 7.16978 99.5052 5.6307 99.5052 5.6307L98.0989 4.2667L100.984 1.26172L102.362 2.63617Z" fill="#04B84D"/>
<path d="M104.268 28.3857H105.386V34.3877C105.386 35.0074 105.238 35.5607 104.94 36.0476C104.645 36.5315 104.229 36.9136 103.691 37.194C103.153 37.4713 102.522 37.61 101.798 37.61C101.074 37.61 100.442 37.4713 99.9045 37.194C99.3665 36.9136 98.9488 36.5315 98.6513 36.0476C98.3567 35.5607 98.2095 35.0074 98.2095 34.3877V28.3857H99.3275V34.2992C99.3275 34.7418 99.4266 35.1357 99.625 35.481C99.8234 35.8233 100.106 36.0933 100.473 36.291C100.842 36.4858 101.284 36.5831 101.798 36.5831C102.312 36.5831 102.754 36.4858 103.123 36.291C103.493 36.0933 103.775 35.8233 103.971 35.481C104.169 35.1357 104.268 34.7418 104.268 34.2992V28.3857Z" fill="#04B84D"/>
<path d="M112.668 30.6519C112.614 30.2034 112.394 29.8552 112.01 29.6073C111.625 29.3594 111.153 29.2355 110.594 29.2355C110.186 29.2355 109.828 29.3004 109.521 29.4303C109.218 29.5601 108.98 29.7386 108.809 29.9658C108.641 30.1931 108.557 30.4513 108.557 30.7404C108.557 30.9824 108.615 31.1904 108.732 31.3645C108.853 31.5357 109.006 31.6788 109.192 31.7939C109.379 31.906 109.574 31.999 109.778 32.0728C109.983 32.1436 110.17 32.2011 110.342 32.2454L111.279 32.4932C111.52 32.5552 111.787 32.6408 112.082 32.75C112.379 32.8592 112.663 33.0082 112.934 33.197C113.207 33.3829 113.433 33.622 113.61 33.9141C113.787 34.2062 113.876 34.5648 113.876 34.9897C113.876 35.4795 113.745 35.9221 113.484 36.3176C113.225 36.713 112.847 37.0272 112.348 37.2604C111.852 37.4935 111.249 37.61 110.54 37.61C109.879 37.61 109.306 37.5053 108.823 37.2958C108.342 37.0863 107.963 36.7941 107.687 36.4194C107.413 36.0446 107.258 35.6094 107.222 35.1136H108.376C108.406 35.4559 108.524 35.7392 108.728 35.9635C108.935 36.1848 109.197 36.35 109.512 36.4592C109.831 36.5654 110.173 36.6185 110.54 36.6185C110.967 36.6185 111.35 36.5507 111.69 36.4149C112.029 36.2762 112.298 36.0844 112.497 35.8395C112.695 35.5916 112.794 35.3025 112.794 34.972C112.794 34.671 112.709 34.4261 112.537 34.2372C112.366 34.0484 112.141 33.8949 111.861 33.7769C111.582 33.6588 111.279 33.5556 110.955 33.467L109.819 33.1483C109.098 32.9447 108.527 32.6541 108.106 32.2764C107.685 31.8987 107.475 31.4044 107.475 30.7936C107.475 30.286 107.614 29.8434 107.894 29.4657C108.176 29.085 108.555 28.7899 109.03 28.5804C109.508 28.3679 110.041 28.2617 110.63 28.2617C111.225 28.2617 111.754 28.3665 112.217 28.576C112.68 28.7825 113.047 29.0658 113.317 29.4258C113.591 29.7858 113.735 30.1945 113.75 30.6519H112.668Z" fill="#04B84D"/>
<path d="M116.093 37.4507H114.921L118.311 28.3857H119.465L122.855 37.4507H121.683L118.924 29.8198H118.852L116.093 37.4507ZM116.526 33.9097H121.25V34.8834H116.526V33.9097Z" fill="#04B84D"/>
</svg>
