<svg xmlns="http://www.w3.org/2000/svg">
  <symbol id="imagotipo" viewBox="0 0 123 38" fill="none">
    <g clip-path="url(#clip0_1003_101073)">
      <path d="M48.948 8.27881V23.6112H44.8859L44.4362 22.527C43.1887 23.5433 41.6061 24.1311 39.8336 24.1311C35.1684 24.1311 31.834 20.7114 31.834 15.9463C31.834 11.1969 35.1684 7.81641 39.8336 7.81641C41.6295 7.81641 43.2329 8.41987 44.4934 9.46485L45.0314 8.27881H48.948ZM43.9503 15.9567C43.9503 13.9661 42.5026 12.4718 40.5352 12.4718C38.5549 12.4718 37.1202 13.9661 37.1202 15.9567C37.1202 17.9578 38.5653 19.4548 40.5352 19.4548C42.5052 19.4548 43.9503 17.9604 43.9503 15.9567Z" fill="#fff"/>
      <path d="M75.6635 14.0119V23.6283H70.4084V14.665C70.4084 13.0636 69.821 12.2903 68.7061 12.2903C67.2612 12.2903 66.523 13.2908 66.523 15.2214V23.6283H61.4057V14.665C61.4057 13.1132 60.8235 12.2903 59.7242 12.2903C58.2999 12.2903 57.5177 13.3144 57.5177 15.2214V23.6283H52.2651V8.29326H55.9609L56.7093 9.9417C57.8114 8.65116 59.4123 7.84131 61.1691 7.84131C63.03 7.84131 64.5946 8.67991 65.5432 10.0985C66.6399 8.71124 68.3293 7.84131 70.2265 7.84131C73.4934 7.84392 75.6635 10.4015 75.6635 14.0119Z" fill="#fff"/>
      <path d="M87.7706 7.81688C92.4669 7.81688 95.7857 11.2078 95.7857 15.9729C95.7857 20.738 92.4669 24.1315 87.7706 24.1315C85.9904 24.1315 83.9891 23.1257 82.7495 22.0861L82.6742 23.63H78.7861V2.75659H83.9813V8.87231C85.0729 8.19568 86.3594 7.81688 87.7706 7.81688ZM90.484 15.9729C90.484 13.9692 89.0363 12.4748 87.0689 12.4748C85.1015 12.4748 83.654 13.9692 83.654 15.9729C83.654 17.9584 85.1015 19.4526 87.0689 19.4526C89.0233 19.4552 90.484 17.9584 90.484 15.9729Z" fill="#fff"/>
      <path d="M103.445 8.29346H98.1902V23.6284H103.445V8.29346Z" fill="#fff"/>
      <path d="M105.866 15.96C105.866 11.2081 109.445 7.79102 114.419 7.79102C119.376 7.79102 122.972 11.2081 122.972 15.96C122.972 20.6965 119.378 24.1292 114.419 24.1292C109.445 24.1292 105.866 20.6965 105.866 15.96ZM114.419 19.385C116.335 19.385 117.71 17.9873 117.71 15.96C117.71 13.9433 116.335 12.5352 114.419 12.5352C112.504 12.5352 111.129 13.9328 111.129 15.96C111.129 17.9873 112.504 19.385 114.419 19.385Z" fill="#fff"/>
      <path d="M10.9312 18.1799C10.1593 18.2974 9.48615 18.4439 8.80783 18.4908C8.08791 18.543 7.52134 18.2113 7.49015 17.4406C7.43557 15.988 7.47457 14.533 7.47457 12.9943C8.82082 12.9943 11.3912 12.9943 12.6828 12.9943C12.6828 11.2439 12.7114 9.5798 12.7114 7.83209C11.3678 7.83209 8.77403 7.83209 7.41219 7.83209C7.41219 6.26985 7.41479 3.51895 7.41479 2.01159C5.39541 2.01942 4.6547 1.97501 1.99339 2.01419C1.95181 3.61824 2.03238 6.33255 1.94921 7.88173C1.2371 7.88173 0.63934 7.88173 0 7.88173C0 9.60592 0 11.2727 0 13.036C0.602954 13.036 1.16173 13.036 1.78807 13.036C1.78807 14.8387 1.73349 16.5497 1.80108 18.2557C1.89203 20.5233 2.66132 22.4513 4.95359 23.329C7.24586 24.2068 9.52253 23.8541 11.8226 23.107C11.5185 21.435 11.2326 19.8414 10.9312 18.1799Z" fill="#FFBE12"/>
      <path fill-rule="evenodd" clip-rule="evenodd" d="M30.9743 7.91025C29.875 9.52213 28.7834 11.2307 27.6839 12.8373C27.2032 13.5427 26.751 14.2768 26.2234 14.9429C25.8102 15.4628 25.8128 15.8129 26.2546 16.3537C28.0219 18.5037 29.7268 20.706 31.4524 22.8899C31.5669 23.0362 31.6656 23.1956 31.8709 23.4935C31.0756 23.4935 30.4077 23.4935 29.7372 23.4935C28.3909 23.4935 27.0421 23.5327 25.6984 23.4673C25.3267 23.449 24.8616 23.2192 24.6276 22.9317C23.4087 21.4375 22.2497 19.8935 21.0697 18.3678C20.9241 18.1798 20.7604 18.0021 20.607 17.8192C20.5473 17.8401 20.4875 17.8611 20.4252 17.8819C20.4252 19.7211 20.4252 21.5628 20.4252 23.4464C18.5565 23.4464 16.7528 23.4464 14.8843 23.4464C14.8843 15.6848 14.8843 9.833 14.8843 2.0166C17.3793 2.0166 18.8372 2.0166 20.4356 2.0166C20.4356 6.35847 20.4356 8.80632 20.4356 13.1508C20.4953 13.1691 20.5551 13.19 20.6148 13.2083C21.3114 12.1711 24.0039 7.87629 24.0039 7.87629L30.9743 7.91025Z" fill="#FFBE12"/>
      <path d="M102.148 2.93871L104.976 0.138184C104.976 0.138184 106.678 2.09751 104.901 3.46119C103.962 4.12999 102.237 3.43769 102.263 3.13987C102.289 2.84206 102.148 2.93871 102.148 2.93871Z" fill="#FFBE12"/>
      <path d="M102.339 2.77136C103.682 3.92083 105.107 3.28601 105.107 3.28601C105.107 3.28601 105.107 3.28601 102.713 5.79134C101.258 7.30393 99.4825 5.7652 99.4825 5.7652L98.0764 4.40151L100.961 1.39722L102.339 2.77136Z" fill="#fff"/>
      <path d="M104.245 28.5198H105.363V34.5205C105.363 35.1401 105.214 35.6932 104.917 36.18C104.622 36.6638 104.206 37.0458 103.668 37.3261C103.13 37.6034 102.499 37.742 101.775 37.742C101.051 37.742 100.42 37.6034 99.8822 37.3261C99.3444 37.0458 98.9267 36.6638 98.6292 36.18C98.3348 35.6932 98.1875 35.1401 98.1875 34.5205V28.5198H99.3052V34.432C99.3052 34.8746 99.4043 35.2683 99.6028 35.6136C99.8011 35.9557 100.084 36.2257 100.45 36.4234C100.82 36.6181 101.261 36.7154 101.775 36.7154C102.289 36.7154 102.731 36.6181 103.1 36.4234C103.47 36.2257 103.752 35.9557 103.948 35.6136C104.146 35.2683 104.245 34.8746 104.245 34.432V28.5198Z" fill="#fff"/>
      <path d="M112.643 30.7856C112.588 30.3373 112.369 29.9891 111.984 29.7413C111.6 29.4935 111.128 29.3696 110.569 29.3696C110.161 29.3696 109.803 29.4345 109.497 29.5643C109.193 29.6941 108.956 29.8726 108.785 30.0998C108.616 30.3268 108.532 30.585 108.532 30.8742C108.532 31.116 108.591 31.324 108.708 31.4982C108.828 31.6693 108.981 31.8122 109.168 31.9274C109.354 32.0395 109.549 32.1324 109.754 32.2061C109.958 32.2769 110.146 32.3345 110.317 32.3787L111.254 32.6266C111.495 32.6886 111.762 32.7741 112.057 32.8833C112.354 32.9924 112.638 33.1414 112.908 33.3302C113.182 33.516 113.407 33.7549 113.584 34.0471C113.762 34.3392 113.85 34.6976 113.85 35.1224C113.85 35.6121 113.72 36.0547 113.458 36.45C113.2 36.8453 112.821 37.1595 112.323 37.3926C111.827 37.6256 111.224 37.7421 110.515 37.7421C109.854 37.7421 109.282 37.6375 108.798 37.428C108.317 37.2185 107.939 36.9265 107.662 36.5517C107.389 36.1771 107.234 35.742 107.198 35.2463H108.352C108.382 35.5885 108.499 35.8718 108.703 36.096C108.911 36.3173 109.172 36.4825 109.488 36.5916C109.806 36.6978 110.149 36.7509 110.515 36.7509C110.942 36.7509 111.325 36.6831 111.664 36.5474C112.004 36.4088 112.273 36.217 112.471 35.9721C112.67 35.7242 112.769 35.4352 112.769 35.1048C112.769 34.8038 112.683 34.559 112.512 34.3701C112.341 34.1813 112.115 34.0278 111.836 33.9099C111.556 33.792 111.254 33.6886 110.93 33.6002L109.794 33.2815C109.073 33.0779 108.502 32.7873 108.081 32.4098C107.661 32.0321 107.451 31.5379 107.451 30.9273C107.451 30.4198 107.59 29.9774 107.87 29.5997C108.152 29.2191 108.531 28.9241 109.005 28.7146C109.483 28.5022 110.016 28.396 110.605 28.396C111.2 28.396 111.729 28.5008 112.192 28.7102C112.655 28.9168 113.021 29.1999 113.291 29.5598C113.565 29.9198 113.709 30.3284 113.724 30.7856H112.643Z" fill="#fff"/>
      <path d="M116.067 37.5827H114.895L118.284 28.5198H119.438L122.827 37.5827H121.656L118.897 29.9536H118.825L116.067 37.5827ZM116.5 34.0426H121.223V35.0161H116.5V34.0426Z" fill="#fff"/>
    </g>
    <defs>
    <clipPath id="clip0_1003_101073">
      <rect width="136" height="37.7239" fill="white" transform=""/>
    </clipPath>
    </defs>
  </symbol>
</svg>