<svg xmlns="http://www.w3.org/2000/svg">
  <symbol id="imagotipo" viewBox="0 0 123 38" fill="none">
    <g clip-path="url(#clip0_1003_101073)">
      <path d="M48.948 8.27881V23.6112H44.8859L44.4362 22.527C43.1887 23.5433 41.6061 24.1311 39.8336 24.1311C35.1684 24.1311 31.834 20.7114 31.834 15.9463C31.834 11.1969 35.1684 7.81641 39.8336 7.81641C41.6295 7.81641 43.2329 8.41987 44.4934 9.46485L45.0314 8.27881H48.948ZM43.9503 15.9567C43.9503 13.9661 42.5026 12.4718 40.5352 12.4718C38.5549 12.4718 37.1202 13.9661 37.1202 15.9567C37.1202 17.9578 38.5653 19.4548 40.5352 19.4548C42.5052 19.4548 43.9503 17.9604 43.9503 15.9567Z" fill="#4563E6"/>
      <path d="M75.6635 14.0119V23.6283H70.4084V14.665C70.4084 13.0636 69.821 12.2903 68.7061 12.2903C67.2612 12.2903 66.523 13.2908 66.523 15.2214V23.6283H61.4057V14.665C61.4057 13.1132 60.8235 12.2903 59.7242 12.2903C58.2999 12.2903 57.5177 13.3144 57.5177 15.2214V23.6283H52.2651V8.29326H55.9609L56.7093 9.9417C57.8114 8.65116 59.4123 7.84131 61.1691 7.84131C63.03 7.84131 64.5946 8.67991 65.5432 10.0985C66.6399 8.71124 68.3293 7.84131 70.2265 7.84131C73.4934 7.84392 75.6635 10.4015 75.6635 14.0119Z" fill="#4563E6"/>
      <path d="M87.7706 7.81688C92.4669 7.81688 95.7857 11.2078 95.7857 15.9729C95.7857 20.738 92.4669 24.1315 87.7706 24.1315C85.9904 24.1315 83.9891 23.1257 82.7495 22.0861L82.6742 23.63H78.7861V2.75659H83.9813V8.87231C85.0729 8.19568 86.3594 7.81688 87.7706 7.81688ZM90.484 15.9729C90.484 13.9692 89.0363 12.4748 87.0689 12.4748C85.1015 12.4748 83.654 13.9692 83.654 15.9729C83.654 17.9584 85.1015 19.4526 87.0689 19.4526C89.0233 19.4552 90.484 17.9584 90.484 15.9729Z" fill="#4563E6"/>
      <path d="M103.445 8.29346H98.1902V23.6284H103.445V8.29346Z" fill="#4563E6"/>
      <path d="M105.866 15.96C105.866 11.2081 109.445 7.79102 114.419 7.79102C119.376 7.79102 122.972 11.2081 122.972 15.96C122.972 20.6965 119.378 24.1292 114.419 24.1292C109.445 24.1292 105.866 20.6965 105.866 15.96ZM114.419 19.385C116.335 19.385 117.71 17.9873 117.71 15.96C117.71 13.9433 116.335 12.5352 114.419 12.5352C112.504 12.5352 111.129 13.9328 111.129 15.96C111.129 17.9873 112.504 19.385 114.419 19.385Z" fill="#4563E6"/>
      <path d="M10.9312 18.1799C10.1593 18.2974 9.48615 18.4439 8.80783 18.4908C8.08791 18.543 7.52134 18.2113 7.49015 17.4406C7.43557 15.988 7.47457 14.533 7.47457 12.9943C8.82082 12.9943 11.3912 12.9943 12.6828 12.9943C12.6828 11.2439 12.7114 9.5798 12.7114 7.83209C11.3678 7.83209 8.77403 7.83209 7.41219 7.83209C7.41219 6.26985 7.41479 3.51895 7.41479 2.01159C5.39541 2.01942 4.6547 1.97501 1.99339 2.01419C1.95181 3.61824 2.03238 6.33255 1.94921 7.88173C1.2371 7.88173 0.63934 7.88173 0 7.88173C0 9.60592 0 11.2727 0 13.036C0.602954 13.036 1.16173 13.036 1.78807 13.036C1.78807 14.8387 1.73349 16.5497 1.80108 18.2557C1.89203 20.5233 2.66132 22.4513 4.95359 23.329C7.24586 24.2068 9.52253 23.8541 11.8226 23.107C11.5185 21.435 11.2326 19.8414 10.9312 18.1799Z" fill="#FFBE12"/>
      <path fill-rule="evenodd" clip-rule="evenodd" d="M30.9743 7.91025C29.875 9.52213 28.7834 11.2307 27.6839 12.8373C27.2032 13.5427 26.751 14.2768 26.2234 14.9429C25.8102 15.4628 25.8128 15.8129 26.2546 16.3537C28.0219 18.5037 29.7268 20.706 31.4524 22.8899C31.5669 23.0362 31.6656 23.1956 31.8709 23.4935C31.0756 23.4935 30.4077 23.4935 29.7372 23.4935C28.3909 23.4935 27.0421 23.5327 25.6984 23.4673C25.3267 23.449 24.8616 23.2192 24.6276 22.9317C23.4087 21.4375 22.2497 19.8935 21.0697 18.3678C20.9241 18.1798 20.7604 18.0021 20.607 17.8192C20.5473 17.8401 20.4875 17.8611 20.4252 17.8819C20.4252 19.7211 20.4252 21.5628 20.4252 23.4464C18.5565 23.4464 16.7528 23.4464 14.8843 23.4464C14.8843 15.6848 14.8843 9.833 14.8843 2.0166C17.3793 2.0166 18.8372 2.0166 20.4356 2.0166C20.4356 6.35847 20.4356 8.80632 20.4356 13.1508C20.4953 13.1691 20.5551 13.19 20.6148 13.2083C21.3114 12.1711 24.0039 7.87629 24.0039 7.87629L30.9743 7.91025Z" fill="#FFBE12"/>
      <path d="M102.148 2.93871L104.976 0.138184C104.976 0.138184 106.678 2.09751 104.901 3.46119C103.962 4.12999 102.237 3.43769 102.263 3.13987C102.289 2.84206 102.148 2.93871 102.148 2.93871Z" fill="#FFBE12"/>
      <path d="M102.339 2.77136C103.682 3.92083 105.107 3.28601 105.107 3.28601C105.107 3.28601 105.107 3.28601 102.713 5.79134C101.258 7.30393 99.4825 5.7652 99.4825 5.7652L98.0764 4.40151L100.961 1.39722L102.339 2.77136Z" fill="#4563E6"/>
      <path d="M104.245 28.5198H105.363V34.5205C105.363 35.1401 105.214 35.6932 104.917 36.18C104.622 36.6638 104.206 37.0458 103.668 37.3261C103.13 37.6034 102.499 37.742 101.775 37.742C101.051 37.742 100.42 37.6034 99.8822 37.3261C99.3444 37.0458 98.9267 36.6638 98.6292 36.18C98.3348 35.6932 98.1875 35.1401 98.1875 34.5205V28.5198H99.3052V34.432C99.3052 34.8746 99.4043 35.2683 99.6028 35.6136C99.8011 35.9557 100.084 36.2257 100.45 36.4234C100.82 36.6181 101.261 36.7154 101.775 36.7154C102.289 36.7154 102.731 36.6181 103.1 36.4234C103.47 36.2257 103.752 35.9557 103.948 35.6136C104.146 35.2683 104.245 34.8746 104.245 34.432V28.5198Z" fill="#4563E6"/>
      <path d="M112.643 30.7856C112.588 30.3373 112.369 29.9891 111.984 29.7413C111.6 29.4935 111.128 29.3696 110.569 29.3696C110.161 29.3696 109.803 29.4345 109.497 29.5643C109.193 29.6941 108.956 29.8726 108.785 30.0998C108.616 30.3268 108.532 30.585 108.532 30.8742C108.532 31.116 108.591 31.324 108.708 31.4982C108.828 31.6693 108.981 31.8122 109.168 31.9274C109.354 32.0395 109.549 32.1324 109.754 32.2061C109.958 32.2769 110.146 32.3345 110.317 32.3787L111.254 32.6266C111.495 32.6886 111.762 32.7741 112.057 32.8833C112.354 32.9924 112.638 33.1414 112.908 33.3302C113.182 33.516 113.407 33.7549 113.584 34.0471C113.762 34.3392 113.85 34.6976 113.85 35.1224C113.85 35.6121 113.72 36.0547 113.458 36.45C113.2 36.8453 112.821 37.1595 112.323 37.3926C111.827 37.6256 111.224 37.7421 110.515 37.7421C109.854 37.7421 109.282 37.6375 108.798 37.428C108.317 37.2185 107.939 36.9265 107.662 36.5517C107.389 36.1771 107.234 35.742 107.198 35.2463H108.352C108.382 35.5885 108.499 35.8718 108.703 36.096C108.911 36.3173 109.172 36.4825 109.488 36.5916C109.806 36.6978 110.149 36.7509 110.515 36.7509C110.942 36.7509 111.325 36.6831 111.664 36.5474C112.004 36.4088 112.273 36.217 112.471 35.9721C112.67 35.7242 112.769 35.4352 112.769 35.1048C112.769 34.8038 112.683 34.559 112.512 34.3701C112.341 34.1813 112.115 34.0278 111.836 33.9099C111.556 33.792 111.254 33.6886 110.93 33.6002L109.794 33.2815C109.073 33.0779 108.502 32.7873 108.081 32.4098C107.661 32.0321 107.451 31.5379 107.451 30.9273C107.451 30.4198 107.59 29.9774 107.87 29.5997C108.152 29.2191 108.531 28.9241 109.005 28.7146C109.483 28.5022 110.016 28.396 110.605 28.396C111.2 28.396 111.729 28.5008 112.192 28.7102C112.655 28.9168 113.021 29.1999 113.291 29.5598C113.565 29.9198 113.709 30.3284 113.724 30.7856H112.643Z" fill="#4563E6"/>
      <path d="M116.067 37.5827H114.895L118.284 28.5198H119.438L122.827 37.5827H121.656L118.897 29.9536H118.825L116.067 37.5827ZM116.5 34.0426H121.223V35.0161H116.5V34.0426Z" fill="#4563E6"/>
    </g>
    <defs>
    <clipPath id="clip0_1003_101073">
      <rect width="123" height="37.7239" fill="white" transform="translate(0 0.138184)"/>
    </clipPath>
    </defs>
  </symbol>

  <symbol id="isotipo-bg" viewBox="0 0 25 24" fill="none">
    <rect x="0.0198059" width="24" height="24" rx="4" fill="#4563E6"/>
    <path d="M13.3429 15.1537L18.1897 10.6608C18.1897 10.6608 21.1048 13.8037 18.0623 15.9904C16.4562 17.0591 13.4986 15.9482 13.541 15.4701C13.5835 14.992 13.3429 15.1537 13.3429 15.1537Z" fill="#FFBE12"/>
    <path d="M13.6684 14.8865C14.3182 15.4139 15.0935 15.7666 15.9199 15.9106C16.7464 16.0547 17.5962 15.9853 18.3878 15.7091L14.3123 19.7309C11.8146 22.1567 8.77209 19.6958 8.77209 19.6958L6.35931 17.495L11.3122 12.6998L13.6684 14.8865Z" fill="white"/>
    <path d="M10.6966 8.83968L5.84279 13.3185C5.84279 13.3185 2.93472 10.1756 5.9843 7.99594C7.59046 6.9272 10.5481 8.04516 10.5056 8.52328C10.4632 9.00139 10.6966 8.83968 10.6966 8.83968Z" fill="#FFBE12"/>
    <path d="M10.3712 9.10686C9.72301 8.57639 8.94797 8.22128 8.12113 8.07592C7.29429 7.93056 6.44369 7.99989 5.65173 8.27718L9.74143 4.26239C12.2391 1.84366 15.2745 4.3116 15.2745 4.3116L17.6802 6.50533L12.7273 11.2936L10.3712 9.10686Z" fill="white"/>
  </symbol>
  <symbol id="isotipo" viewBox="0 0 25 25" fill="none">
    <path d="M13.9052 16.4029L20.4874 10.2762C20.4874 10.2762 24.4464 14.562 20.3145 17.5439C18.1332 19.0012 14.1166 17.4863 14.1742 16.8343C14.2319 16.1824 13.9052 16.4029 13.9052 16.4029Z" fill="#FFBE12"/>
    <path d="M14.3472 16.0385C15.2296 16.7578 16.2826 17.2387 17.4049 17.4351C18.5272 17.6315 19.6813 17.5369 20.7564 17.1603L15.2216 22.6446C11.8296 25.9524 7.69764 22.5967 7.69764 22.5967L4.42093 19.5956L11.1473 13.0566L14.3472 16.0385Z" fill="white"/>
    <path d="M10.3113 7.79286L3.71949 13.9004C3.71949 13.9004 -0.229866 9.61458 3.91167 6.64231C6.09294 5.18494 10.1096 6.70943 10.0519 7.36141C9.99425 8.01339 10.3113 7.79286 10.3113 7.79286Z" fill="#FFBE12"/>
    <path d="M9.86928 8.15721C8.98905 7.43385 7.9365 6.9496 6.81359 6.75138C5.69069 6.55316 4.53552 6.6477 3.45999 7.02583L9.01407 1.55111C12.4061 -1.74715 16.5284 1.61822 16.5284 1.61822L19.7955 4.60967L13.0691 11.1391L9.86928 8.15721Z" fill="white"/>
  </symbol>
  <symbol id="imagotipo-bg" viewBox="0 0 88 24" fill="none">
    <rect x="0.969818" width="86.1" height="24" rx="2" fill="#4563E6"/>
    <g clip-path="url(#clip0_203_16913)">
    <path d="M36.1608 9.58906V19.1756H33.6143L33.3316 18.4975C32.5488 19.1334 31.5568 19.4999 30.4464 19.4999C27.5214 19.4999 25.4312 17.3613 25.4312 14.3819C25.4312 11.413 27.5214 9.29962 30.4464 9.29962C31.5726 9.29962 32.5785 9.67664 33.3684 10.3301L33.7053 9.58855L36.1608 9.58906ZM33.0276 14.3898C33.0276 13.1454 32.1207 12.2108 30.8864 12.2108C29.6451 12.2108 28.746 13.1454 28.746 14.3898C28.746 15.6417 29.6524 16.576 30.8864 16.576C32.1206 16.5761 33.0276 15.6417 33.0276 14.3898Z" fill="white"/>
    <path d="M52.9081 13.1731V19.1859H49.6142V13.5812C49.6142 12.5801 49.2464 12.097 48.5465 12.097C47.6413 12.097 47.1772 12.7218 47.1772 13.9292V19.1858H43.9684V13.5812C43.9684 12.6102 43.6031 12.097 42.9139 12.097C42.0206 12.097 41.531 12.7371 41.531 13.9292V19.1858H38.2372V9.59878H40.5536L41.0224 10.629C41.7138 9.82183 42.7168 9.31586 43.8186 9.31586C44.9846 9.31586 45.9657 9.8406 46.5612 10.7267C47.2481 9.85975 48.3074 9.31586 49.4981 9.31586C51.5468 9.31586 52.9081 10.9156 52.9081 13.1731Z" fill="white"/>
    <path d="M60.5013 9.2998C63.4462 9.2998 65.5266 11.4202 65.5266 14.3997C65.5266 17.3794 63.4462 19.4999 60.5013 19.4999C59.385 19.4999 58.1307 18.8714 57.3533 18.2205L57.3058 19.1858H54.8676V6.13745H58.1246V9.9609C58.8095 9.53702 59.6165 9.2998 60.5013 9.2998ZM62.2018 14.3997C62.2018 13.1475 61.2948 12.2134 60.0607 12.2134C58.8267 12.2134 57.9196 13.1475 57.9196 14.3997C57.9196 15.6414 58.8266 16.5761 60.0607 16.5761C61.287 16.5761 62.2018 15.6415 62.2018 14.3997Z" fill="white"/>
    <path d="M70.3305 9.59894H67.0359V19.1858H70.3305V9.59894Z" fill="white"/>
    <path d="M71.8454 14.3924C71.8454 11.4208 74.0893 9.28522 77.208 9.28522C80.3159 9.28522 82.5698 11.4208 82.5698 14.3924C82.5698 17.3541 80.316 19.5 77.208 19.5C74.0893 19.5 71.8454 17.3541 71.8454 14.3924ZM77.208 16.5338C78.409 16.5338 79.2701 15.6598 79.2701 14.3931C79.2701 13.1329 78.4089 12.2516 77.208 12.2516C76.0064 12.2516 75.1451 13.1251 75.1451 14.3924C75.1451 15.6598 76.0064 16.5338 77.208 16.5338Z" fill="white"/>
    <path d="M12.3236 15.7819C11.8397 15.8554 11.4181 15.9462 10.9921 15.977C10.5405 16.01 10.1847 15.8019 10.1663 15.3207C10.1317 14.4126 10.1563 13.502 10.1563 12.5405C10.9997 12.5405 12.6113 12.5405 13.4225 12.5405C13.4225 11.4467 13.4397 10.4062 13.4397 9.31341C12.5982 9.31341 10.9706 9.31341 10.1177 9.31341C10.1177 8.33657 10.1188 6.61706 10.1188 5.67394C8.85255 5.67777 8.38892 5.64981 6.71997 5.67522C6.69424 6.67745 6.74493 8.37436 6.69182 9.34226C6.24461 9.34226 5.87078 9.34226 5.46994 9.34226C5.46994 10.4206 5.46994 11.4632 5.46994 12.5654C5.84785 12.5654 6.19914 12.5654 6.59094 12.5654C6.59094 13.6925 6.55693 14.7619 6.59909 15.8282C6.65526 17.2462 7.13889 18.451 8.57488 18.9995C10.0116 19.5481 11.4395 19.3284 12.8812 18.8606C12.6922 17.8163 12.5116 16.8201 12.3236 15.7819Z" fill="#FFBE12"/>
    <path fill-rule="evenodd" clip-rule="evenodd" d="M24.8904 9.35786C24.2015 10.3656 23.5162 11.4335 22.8283 12.4385C22.5263 12.88 22.244 13.3377 21.9118 13.7551C21.6529 14.0804 21.6539 14.2996 21.9308 14.6364C23.039 15.9806 24.1079 17.3574 25.1896 18.7232C25.262 18.8144 25.3234 18.9148 25.4515 19.1008C24.9532 19.1008 24.5337 19.1008 24.1136 19.1008C23.2692 19.1008 22.4234 19.1247 21.5809 19.0851C21.3486 19.0742 21.0564 18.9302 20.9096 18.7506C20.1451 17.8162 19.4192 16.8503 18.6783 15.8965C18.5864 15.7783 18.4846 15.6676 18.388 15.5531C18.3501 15.5665 18.3122 15.5795 18.2744 15.5926C18.2744 16.7433 18.2744 17.8939 18.2744 19.0722C17.102 19.0722 15.9719 19.0722 14.8009 19.0722C14.8009 14.2203 14.8009 10.5618 14.8009 5.67358C16.3654 5.67358 17.2786 5.67358 18.2815 5.67358C18.2815 8.38882 18.2815 9.91899 18.2815 12.6345C18.3191 12.6465 18.3569 12.6586 18.3947 12.6706C18.8312 12.0216 20.5199 9.33603 20.5199 9.33603L24.8904 9.35786Z" fill="#FFBE12"/>
    <path d="M69.5156 6.25156L71.2886 4.5C71.2886 4.5 72.3559 5.72477 71.242 6.57738C70.6543 6.99589 69.5721 6.56193 69.5873 6.37591C69.6027 6.18989 69.5156 6.25156 69.5156 6.25156Z" fill="#FFBE12"/>
    <path d="M69.6347 6.14688C70.4769 6.86581 71.3705 6.4681 71.3705 6.4681C71.3705 6.4681 71.3705 6.4681 69.8702 8.03376C68.9577 8.97957 67.8443 8.01819 67.8443 8.01819L66.9626 7.16558L68.7719 5.28687L69.6347 6.14688Z" fill="white"/>
    </g>
    <defs>
    <clipPath id="clip0_203_16913">
    <rect width="77.1" height="15" fill="white" transform="translate(5.46982 4.5)"/>
    </clipPath>
    </defs>
  </symbol>
</svg>
